<svg xmlns="http://www.w3.org/2000/svg" viewBox="0 0 1600 900"><defs><linearGradient id="bg" x1="0" y1="0" x2="1" y2="1"><stop offset="0%" stop-color="#163b26"/><stop offset="100%" stop-color="#538b64"/></linearGradient><filter id="soft"><feGaussianBlur stdDeviation="40"/></filter></defs><rect width="1600" height="900" fill="url(#bg)"/><g filter="url(#soft)"><ellipse cx="500" cy="320" rx="270" ry="190" fill="#cde5cf" opacity="0.16"/><ellipse cx="1140" cy="520" rx="280" ry="160" fill="#ffffff" opacity="0.08"/></g><path d="M0 720 L1600 720 L1600 900 L0 900 Z" fill="#1c4f35"/><g opacity="0.95"><rect x="1120" y="480" width="96" height="190" rx="20" fill="#256c41"/><rect x="1220" y="450" width="110" height="220" rx="24" fill="#2d7c4d"/><rect x="1340" y="500" width="80" height="160" rx="18" fill="#2a6f44"/><rect x="1040" y="520" width="60" height="150" rx="14" fill="#1f5b35"/></g><path d="M280 650 C370 540 490 560 620 500 S970 760 1190 690" fill="none" stroke="#ffffff" stroke-opacity="0.14" stroke-width="28" stroke-linecap="round"/><g fill="#fff" opacity="0.95"><circle cx="540" cy="520" r="28"/><path d="M535 548 C520 590 540 670 540 670 C540 670 540 760 540 760" stroke="#fff" stroke-width="18" fill="none" stroke-linecap="round"/><path d="M540 610 C500 640 500 680 540 700" stroke="#fff" stroke-width="16" fill="none" stroke-linecap="round"/><path d="M540 610 C580 640 580 680 540 700" stroke="#fff" stroke-width="16" fill="none" stroke-linecap="round"/></g><g fill="#fff" opacity="0.8"><circle cx="670" cy="560" r="22"/><rect x="658" y="582" width="24" height="78" rx="12"/><path d="M658 620 Q638 650 658 680" stroke="#fff" stroke-width="12" fill="none" stroke-linecap="round"/><path d="M682 620 Q702 650 682 680" stroke="#fff" stroke-width="12" fill="none" stroke-linecap="round"/></g><g opacity="0.45"><rect x="220" y="260" width="320" height="180" rx="24" fill="#ffffff"/><rect x="260" y="300" width="80" height="24" rx="12" fill="#d7e7d3"/><rect x="360" y="300" width="120" height="24" rx="12" fill="#d7e7d3"/><rect x="260" y="340" width="180" height="24" rx="12" fill="#d7e7d3"/><rect x="260" y="380" width="140" height="24" rx="12" fill="#d7e7d3"/></g></svg>