<svg xmlns="http://www.w3.org/2000/svg" viewBox="0 0 1600 900"><defs><linearGradient id="bg" x1="0" y1="0" x2="1" y2="1"><stop offset="0%" stop-color="#163421"/><stop offset="100%" stop-color="#4b825a"/></linearGradient><filter id="soft"><feGaussianBlur stdDeviation="40"/></filter></defs><rect width="1600" height="900" fill="url(#bg)"/><g filter="url(#soft)"><ellipse cx="480" cy="300" rx="260" ry="190" fill="#d6e9d7" opacity="0.14"/><ellipse cx="1160" cy="520" rx="290" ry="190" fill="#ffffff" opacity="0.08"/></g><path d="M0 720 L1600 720 L1600 900 L0 900 Z" fill="#193a24"/><g opacity="0.95"><rect x="180" y="460" width="96" height="220" rx="18" fill="#1f5833"/><rect x="280" y="420" width="116" height="260" rx="20" fill="#255f3c"/><rect x="400" y="380" width="80" height="300" rx="16" fill="#1e4f31"/><rect x="520" y="430" width="68" height="250" rx="14" fill="#2b6b46"/><rect x="620" y="410" width="110" height="270" rx="18" fill="#276241"/></g><g opacity="0.9"><rect x="1080" y="520" width="72" height="170" rx="12" fill="#295d3c"/><rect x="1168" y="470" width="90" height="220" rx="16" fill="#316c45"/><rect x="1272" y="500" width="54" height="190" rx="12" fill="#1f5332"/><rect x="1340" y="520" width="86" height="170" rx="16" fill="#2c6240"/></g><path d="M340 680 C420 560 520 590 640 510 S990 780 1180 700" fill="none" stroke="#ffffff" stroke-opacity="0.14" stroke-width="30" stroke-linecap="round"/><g fill="#fff" opacity="0.88"><circle cx="880" cy="530" r="20"/><rect x="860" y="550" width="40" height="90" rx="16"/><path d="M860 585 Q830 640 860 700" stroke="#fff" stroke-width="18" stroke-linecap="round" fill="none"/><path d="M900 585 Q930 640 900 700" stroke="#fff" stroke-width="18" stroke-linecap="round" fill="none"/></g><g fill="#fff" opacity="0.9"><circle cx="1040" cy="560" r="18"/><rect x="1028" y="578" width="24" height="70" rx="12"/><path d="M1028 620 Q1008 650 1028 680" stroke="#fff" stroke-width="14" stroke-linecap="round" fill="none"/><path d="M1052 620 Q1072 650 1052 680" stroke="#fff" stroke-width="14" stroke-linecap="round" fill="none"/></g><g opacity="0.55"><rect x="920" y="230" width="360" height="200" rx="26" fill="#ffffff"/><rect x="970" y="280" width="150" height="24" rx="12" fill="#d7e7d3"/><rect x="970" y="320" width="220" height="24" rx="12" fill="#d7e7d3"/><rect x="970" y="360" width="190" height="24" rx="12" fill="#d7e7d3"/><rect x="1180" y="280" width="80" height="24" rx="12" fill="#d7e7d3"/><rect x="1180" y="320" width="80" height="24" rx="12" fill="#d7e7d3"/></g></svg>